<svg xmlns="http://www.w3.org/2000/svg" viewBox="0 12.899999618530273 107.80000305175781 36.05000686645508" data-asc="0.968" width="107.80000305175781" height="36.05000686645508"><defs/><g fill="#0084ff"><g transform="translate(0, 0)"><path d="M0 48.40L15.75 13.40L22.15 13.40L37.95 48.40L31.15 48.40L17.60 16.85L20.20 16.85L6.70 48.40L0 48.40M7.25 40.30L9 35.20L27.90 35.20L29.65 40.30L7.25 40.30ZM52.50 48.90Q48.85 48.90 45.95 47.70Q43.05 46.50 41.40 44.40Q39.75 42.30 39.75 39.55Q39.75 37.05 40.85 35.05Q41.95 33.05 44.35 31.22Q46.75 29.40 50.50 27.55Q53.45 26.10 55.13 25.00Q56.80 23.90 57.48 22.90Q58.15 21.90 58.15 20.80Q58.15 19.30 57.10 18.37Q56.05 17.45 54.10 17.45Q52 17.45 50.83 18.47Q49.65 19.50 49.65 21.15Q49.65 22.00 49.98 22.80Q50.30 23.60 51.15 24.60Q52 25.60 53.60 27.15L72.10 44.90L68.65 48.95L48.65 29.75Q46.95 28.10 45.90 26.70Q44.85 25.30 44.40 23.97Q43.95 22.65 43.95 21.25Q43.95 18.80 45.20 16.92Q46.45 15.05 48.75 14.02Q51.05 13 54.10 13Q56.95 13 59.03 13.92Q61.10 14.85 62.28 16.57Q63.45 18.30 63.45 20.70Q63.45 22.80 62.40 24.57Q61.35 26.35 59.13 27.95Q56.90 29.55 53.20 31.30Q50.45 32.65 48.85 33.85Q47.25 35.05 46.55 36.25Q45.85 37.45 45.85 38.90Q45.85 40.35 46.73 41.45Q47.60 42.55 49.20 43.17Q50.80 43.80 52.95 43.80Q56.15 43.80 58.78 42.38Q61.40 40.95 63.20 38.10Q65 35.25 65.80 31.05L70.85 32.70Q69.80 37.75 67.23 41.38Q64.65 45 60.90 46.95Q57.15 48.90 52.50 48.90ZM93.90 48.90Q89.90 48.90 86.47 47.57Q83.05 46.25 80.53 43.82Q78 41.40 76.60 38.10Q75.20 34.80 75.20 30.90Q75.20 27.00 76.60 23.70Q78 20.40 80.55 17.97Q83.10 15.55 86.50 14.22Q89.90 12.90 93.95 12.90Q98.25 12.90 101.80 14.38Q105.35 15.85 107.80 18.75L103.60 22.70Q101.70 20.65 99.35 19.62Q97 18.60 94.25 18.60Q91.50 18.60 89.22 19.50Q86.95 20.40 85.28 22.05Q83.60 23.70 82.67 25.95Q81.75 28.20 81.75 30.90Q81.75 33.60 82.67 35.85Q83.60 38.10 85.28 39.75Q86.95 41.40 89.22 42.30Q91.50 43.20 94.25 43.20Q97 43.20 99.35 42.17Q101.70 41.15 103.60 39.05L107.80 43.05Q105.35 45.90 101.80 47.40Q98.25 48.90 93.90 48.90Z"/></g></g></svg>